<svg width="122" height="145" viewBox="0 0 122 145" fill="none" xmlns="http://www.w3.org/2000/svg">
<circle cx="59.5" cy="57.5" r="57.5" fill="#D9D9D9"/>
<g clip-path="url(#clip0_765_215)">
<path d="M69.3333 47.3333H68.656L65.744 43.5573C65.3687 43.0744 64.8884 42.6832 64.3396 42.4134C63.7907 42.1436 63.1876 42.0022 62.576 42H57.424C56.8124 42.0022 56.2093 42.1436 55.6604 42.4134C55.1116 42.6832 54.6313 43.0744 54.256 43.5573L51.344 47.3333H50.6667C48.8992 47.3355 47.2047 48.0385 45.955 49.2883C44.7052 50.5381 44.0021 52.2325 44 54V67.3333C44.0021 69.1008 44.7052 70.7953 45.955 72.045C47.2047 73.2948 48.8992 73.9979 50.6667 74H69.3333C71.1008 73.9979 72.7953 73.2948 74.045 72.045C75.2948 70.7953 75.9979 69.1008 76 67.3333V54C75.9979 52.2325 75.2948 50.5381 74.045 49.2883C72.7953 48.0385 71.1008 47.3355 69.3333 47.3333V47.3333ZM56.368 45.1867C56.4929 45.0254 56.6529 44.8948 56.8359 44.8046C57.0189 44.7145 57.22 44.6673 57.424 44.6667H62.576C62.7799 44.6675 62.981 44.7148 63.164 44.8049C63.3469 44.895 63.507 45.0256 63.632 45.1867L65.288 47.3333H54.712L56.368 45.1867ZM73.3333 67.3333C73.3333 68.3942 72.9119 69.4116 72.1618 70.1618C71.4116 70.9119 70.3942 71.3333 69.3333 71.3333H50.6667C49.6058 71.3333 48.5884 70.9119 47.8382 70.1618C47.0881 69.4116 46.6667 68.3942 46.6667 67.3333V54C46.6667 52.9391 47.0881 51.9217 47.8382 51.1716C48.5884 50.4214 49.6058 50 50.6667 50H69.3333C70.3942 50 71.4116 50.4214 72.1618 51.1716C72.9119 51.9217 73.3333 52.9391 73.3333 54V67.3333Z" fill="white"/>
<path d="M60 52.6665C58.4178 52.6665 56.871 53.1357 55.5554 54.0147C54.2398 54.8938 53.2145 56.1432 52.609 57.605C52.0035 59.0668 51.845 60.6754 52.1537 62.2272C52.4624 63.7791 53.2243 65.2045 54.3431 66.3234C55.462 67.4422 56.8874 68.2041 58.4393 68.5128C59.9911 68.8215 61.5997 68.663 63.0615 68.0575C64.5233 67.452 65.7727 66.4267 66.6518 65.1111C67.5308 63.7955 68 62.2488 68 60.6665C67.9979 58.5454 67.1544 56.5118 65.6545 55.012C64.1547 53.5122 62.1211 52.6686 60 52.6665V52.6665ZM60 65.9998C58.9452 65.9998 57.914 65.687 57.037 65.101C56.1599 64.515 55.4763 63.682 55.0726 62.7075C54.669 61.7329 54.5634 60.6606 54.7691 59.626C54.9749 58.5915 55.4829 57.6411 56.2288 56.8953C56.9746 56.1494 57.925 55.6414 58.9595 55.4356C59.9941 55.2299 61.0664 55.3355 62.041 55.7391C63.0155 56.1428 63.8485 56.8264 64.4345 57.7035C65.0205 58.5805 65.3333 59.6117 65.3333 60.6665C65.3333 62.081 64.7714 63.4375 63.7712 64.4377C62.771 65.4379 61.4145 65.9998 60 65.9998Z" fill="white"/>
</g>
<path d="M9.7085 139.286V141H2.02539V139.286H9.7085ZM2.67725 139.286V143.615H0.611816L0.494629 139.286H2.67725ZM11.2905 139.286L11.1001 143.622H9.08594V139.286H11.2905ZM8.5 130.336V132.057H3.36572V130.336H8.5ZM10.0674 130.336V141H7.87744V130.336H10.0674ZM3.09473 130.336H5.29199L5.00635 134.679C4.9624 135.397 4.88428 136.032 4.77197 136.583C4.66455 137.13 4.53271 137.611 4.37646 138.026C4.2251 138.441 4.05664 138.805 3.87109 139.118C3.68555 139.425 3.49023 139.694 3.28516 139.923C3.08008 140.148 2.87256 140.348 2.6626 140.524C2.45264 140.695 2.24756 140.854 2.04736 141H0.787598V139.286H1.27832C1.41992 139.169 1.56885 139.008 1.7251 138.803C1.88623 138.598 2.0376 138.322 2.1792 137.975C2.32568 137.624 2.45264 137.179 2.56006 136.642C2.67236 136.105 2.75537 135.451 2.80908 134.679L3.09473 130.336ZM11.957 137.118V136.964C11.957 136.383 12.04 135.849 12.2061 135.36C12.3721 134.867 12.6138 134.44 12.9312 134.079C13.2485 133.717 13.6392 133.437 14.103 133.236C14.5669 133.031 15.0991 132.929 15.6997 132.929C16.3003 132.929 16.835 133.031 17.3037 133.236C17.7725 133.437 18.1655 133.717 18.4829 134.079C18.8052 134.44 19.0493 134.867 19.2153 135.36C19.3813 135.849 19.4644 136.383 19.4644 136.964V137.118C19.4644 137.694 19.3813 138.229 19.2153 138.722C19.0493 139.21 18.8052 139.638 18.4829 140.004C18.1655 140.365 17.7749 140.646 17.311 140.846C16.8472 141.046 16.3149 141.146 15.7144 141.146C15.1138 141.146 14.5791 141.046 14.1104 140.846C13.6465 140.646 13.2534 140.365 12.9312 140.004C12.6138 139.638 12.3721 139.21 12.2061 138.722C12.04 138.229 11.957 137.694 11.957 137.118ZM14.0664 136.964V137.118C14.0664 137.45 14.0957 137.76 14.1543 138.048C14.2129 138.336 14.3057 138.59 14.4326 138.81C14.5645 139.025 14.7354 139.193 14.9453 139.315C15.1553 139.438 15.4116 139.499 15.7144 139.499C16.0073 139.499 16.2588 139.438 16.4688 139.315C16.6787 139.193 16.8472 139.025 16.9741 138.81C17.1011 138.59 17.1938 138.336 17.2524 138.048C17.3159 137.76 17.3477 137.45 17.3477 137.118V136.964C17.3477 136.642 17.3159 136.339 17.2524 136.056C17.1938 135.768 17.0986 135.514 16.9668 135.294C16.8398 135.07 16.6714 134.894 16.4614 134.767C16.2515 134.64 15.9976 134.577 15.6997 134.577C15.4019 134.577 15.1479 134.64 14.938 134.767C14.7329 134.894 14.5645 135.07 14.4326 135.294C14.3057 135.514 14.2129 135.768 14.1543 136.056C14.0957 136.339 14.0664 136.642 14.0664 136.964ZM25.6167 129.589H27.3232C27.3232 129.984 27.2744 130.324 27.1768 130.607C27.0791 130.885 26.9229 131.125 26.708 131.325C26.4932 131.52 26.2051 131.686 25.8438 131.823C25.4824 131.959 25.0356 132.077 24.5034 132.174C24.0933 132.257 23.7368 132.394 23.4341 132.584C23.1362 132.775 22.8896 133.036 22.6943 133.368C22.5039 133.695 22.3672 134.11 22.2842 134.613C22.2012 135.111 22.1719 135.712 22.1963 136.415V136.767L20.5557 136.994V136.642C20.5605 135.685 20.646 134.853 20.812 134.145C20.9829 133.437 21.2246 132.841 21.5371 132.357C21.8496 131.869 22.2256 131.481 22.665 131.193C23.1045 130.9 23.5928 130.695 24.1299 130.578C24.4912 130.5 24.7793 130.424 24.9941 130.351C25.2139 130.272 25.3726 130.175 25.4702 130.058C25.5679 129.94 25.6167 129.784 25.6167 129.589ZM24.6938 133.522C25.231 133.522 25.707 133.615 26.1221 133.8C26.5371 133.981 26.8862 134.237 27.1694 134.569C27.4526 134.901 27.6675 135.292 27.814 135.741C27.9604 136.19 28.0337 136.681 28.0337 137.213V137.367C28.0337 137.909 27.9507 138.412 27.7847 138.876C27.6235 139.335 27.3843 139.735 27.0669 140.077C26.7495 140.419 26.3589 140.685 25.895 140.875C25.4312 141.061 24.9014 141.154 24.3057 141.154C23.7051 141.154 23.1704 141.054 22.7017 140.854C22.2378 140.648 21.8447 140.363 21.5225 139.997C21.2051 139.625 20.9634 139.193 20.7974 138.7C20.6362 138.202 20.5557 137.66 20.5557 137.074V136.913C20.5557 136.83 20.5923 136.75 20.6655 136.671C20.7437 136.588 20.834 136.496 20.9365 136.393C21.0439 136.291 21.1392 136.161 21.2222 136.005C21.5151 135.463 21.835 135.009 22.1816 134.643C22.5283 134.271 22.9067 133.993 23.3169 133.808C23.7319 133.617 24.1909 133.522 24.6938 133.522ZM24.291 135.17C23.8955 135.17 23.5781 135.265 23.3389 135.456C23.0996 135.641 22.9263 135.89 22.8188 136.203C22.7163 136.51 22.665 136.847 22.665 137.213V137.367C22.665 137.665 22.6943 137.943 22.7529 138.202C22.8115 138.456 22.9043 138.683 23.0312 138.883C23.1582 139.079 23.3267 139.232 23.5366 139.345C23.7466 139.452 24.0029 139.506 24.3057 139.506C24.5986 139.506 24.8477 139.452 25.0527 139.345C25.2627 139.232 25.4312 139.079 25.5581 138.883C25.6851 138.683 25.7778 138.456 25.8364 138.202C25.895 137.943 25.9243 137.665 25.9243 137.367V137.213C25.9243 136.935 25.895 136.674 25.8364 136.43C25.7778 136.181 25.6851 135.963 25.5581 135.778C25.4312 135.587 25.2627 135.438 25.0527 135.331C24.8428 135.224 24.5889 135.17 24.291 135.17ZM33.5928 139.213V135.683C33.5928 135.429 33.5513 135.211 33.4683 135.031C33.3853 134.845 33.2559 134.701 33.0801 134.599C32.9092 134.496 32.687 134.445 32.4136 134.445C32.1792 134.445 31.9766 134.486 31.8057 134.569C31.6348 134.647 31.5029 134.762 31.4102 134.914C31.3174 135.06 31.271 135.233 31.271 135.434H29.1616C29.1616 135.097 29.2397 134.777 29.396 134.474C29.5522 134.171 29.7793 133.905 30.0771 133.676C30.375 133.441 30.729 133.258 31.1392 133.126C31.5542 132.995 32.0181 132.929 32.5308 132.929C33.146 132.929 33.6929 133.031 34.1714 133.236C34.6499 133.441 35.0259 133.749 35.2993 134.159C35.5776 134.569 35.7168 135.082 35.7168 135.697V139.088C35.7168 139.523 35.7437 139.879 35.7974 140.158C35.8511 140.431 35.9292 140.67 36.0317 140.875V141H33.9004C33.7979 140.785 33.7197 140.517 33.666 140.194C33.6172 139.867 33.5928 139.54 33.5928 139.213ZM33.8711 136.173L33.8857 137.367H32.7065C32.4282 137.367 32.1865 137.399 31.9814 137.462C31.7764 137.526 31.6079 137.616 31.4761 137.733C31.3442 137.846 31.2466 137.978 31.1831 138.129C31.1245 138.28 31.0952 138.446 31.0952 138.627C31.0952 138.808 31.1367 138.971 31.2197 139.118C31.3027 139.259 31.4224 139.372 31.5786 139.455C31.7349 139.533 31.918 139.572 32.1279 139.572C32.4453 139.572 32.7212 139.508 32.9556 139.381C33.1899 139.254 33.3706 139.098 33.4976 138.913C33.6294 138.727 33.6978 138.551 33.7026 138.385L34.2593 139.279C34.1812 139.479 34.0737 139.687 33.937 139.901C33.8052 140.116 33.6367 140.319 33.4316 140.509C33.2266 140.695 32.98 140.849 32.6919 140.971C32.4038 141.088 32.062 141.146 31.6665 141.146C31.1636 141.146 30.707 141.046 30.2969 140.846C29.8916 140.641 29.5693 140.36 29.3301 140.004C29.0957 139.643 28.9785 139.232 28.9785 138.773C28.9785 138.358 29.0566 137.99 29.2129 137.667C29.3691 137.345 29.5986 137.074 29.9014 136.854C30.209 136.63 30.5923 136.461 31.0513 136.349C31.5103 136.232 32.0425 136.173 32.6479 136.173H33.8711ZM41.2905 137.689H38.8076L38.793 136.305H40.8438C41.1172 136.305 41.3394 136.278 41.5103 136.225C41.6812 136.166 41.8057 136.081 41.8838 135.968C41.9668 135.851 42.0083 135.709 42.0083 135.543C42.0083 135.397 41.9814 135.272 41.9277 135.17C41.8789 135.062 41.8032 134.975 41.7007 134.906C41.5981 134.838 41.4688 134.789 41.3125 134.76C41.1611 134.726 40.9829 134.708 40.7778 134.708H39.5913V141H37.4819V133.075H40.7778C41.2954 133.075 41.7593 133.122 42.1694 133.214C42.5796 133.302 42.9287 133.437 43.2168 133.617C43.5098 133.798 43.7319 134.027 43.8833 134.306C44.0396 134.579 44.1177 134.904 44.1177 135.28C44.1177 135.524 44.0615 135.753 43.9492 135.968C43.8418 136.183 43.6807 136.374 43.4658 136.54C43.251 136.706 42.9849 136.842 42.6675 136.95C42.355 137.052 41.9937 137.116 41.5835 137.14L41.2905 137.689ZM41.2905 141H38.2876L39.0127 139.367H41.2905C41.5493 139.367 41.7617 139.335 41.9277 139.271C42.0938 139.208 42.2158 139.115 42.2939 138.993C42.377 138.866 42.4185 138.715 42.4185 138.539C42.4185 138.368 42.3818 138.219 42.3086 138.092C42.2354 137.965 42.1157 137.868 41.9497 137.799C41.7886 137.726 41.5688 137.689 41.2905 137.689H39.3203L39.335 136.305H41.5762L42.0889 136.862C42.6455 136.896 43.1045 137.001 43.4658 137.177C43.8271 137.353 44.0933 137.577 44.2642 137.851C44.4399 138.119 44.5278 138.415 44.5278 138.737C44.5278 139.113 44.457 139.442 44.3154 139.726C44.1738 140.009 43.9639 140.246 43.6855 140.436C43.4121 140.622 43.0752 140.763 42.6748 140.861C42.2744 140.954 41.813 141 41.2905 141ZM47.9263 138.056L50.585 133.075H52.6943V141H50.585V136.012L47.9263 141H45.8169V133.075H47.9263V138.056ZM58.356 133.075V141H56.2393V133.075H58.356ZM60.9048 133.075V134.708H53.7271V133.075H60.9048ZM63.439 135.426H65.7388C66.4614 135.426 67.0767 135.546 67.5845 135.785C68.0972 136.02 68.4878 136.347 68.7563 136.767C69.0298 137.187 69.1665 137.672 69.1665 138.224C69.1665 138.625 69.0884 138.996 68.9321 139.337C68.7808 139.674 68.5586 139.967 68.2656 140.216C67.9727 140.465 67.6138 140.658 67.189 140.795C66.7642 140.932 66.2808 141 65.7388 141H62.1206V133.075H64.2373V139.359H65.7388C66.0562 139.359 66.3101 139.308 66.5005 139.206C66.6958 139.098 66.8374 138.959 66.9253 138.788C67.0181 138.617 67.0645 138.432 67.0645 138.231C67.0645 138.021 67.0181 137.831 66.9253 137.66C66.8374 137.484 66.6958 137.343 66.5005 137.235C66.3101 137.128 66.0562 137.074 65.7388 137.074H63.439V135.426ZM78.373 139.213V135.683C78.373 135.429 78.3315 135.211 78.2485 135.031C78.1655 134.845 78.0361 134.701 77.8604 134.599C77.6895 134.496 77.4673 134.445 77.1938 134.445C76.9595 134.445 76.7568 134.486 76.5859 134.569C76.415 134.647 76.2832 134.762 76.1904 134.914C76.0977 135.06 76.0513 135.233 76.0513 135.434H73.9419C73.9419 135.097 74.02 134.777 74.1763 134.474C74.3325 134.171 74.5596 133.905 74.8574 133.676C75.1553 133.441 75.5093 133.258 75.9194 133.126C76.3345 132.995 76.7983 132.929 77.311 132.929C77.9263 132.929 78.4731 133.031 78.9517 133.236C79.4302 133.441 79.8062 133.749 80.0796 134.159C80.3579 134.569 80.4971 135.082 80.4971 135.697V139.088C80.4971 139.523 80.5239 139.879 80.5776 140.158C80.6313 140.431 80.7095 140.67 80.812 140.875V141H78.6807C78.5781 140.785 78.5 140.517 78.4463 140.194C78.3975 139.867 78.373 139.54 78.373 139.213ZM78.6514 136.173L78.666 137.367H77.4868C77.2085 137.367 76.9668 137.399 76.7617 137.462C76.5566 137.526 76.3882 137.616 76.2563 137.733C76.1245 137.846 76.0269 137.978 75.9634 138.129C75.9048 138.28 75.8755 138.446 75.8755 138.627C75.8755 138.808 75.917 138.971 76 139.118C76.083 139.259 76.2026 139.372 76.3589 139.455C76.5151 139.533 76.6982 139.572 76.9082 139.572C77.2256 139.572 77.5015 139.508 77.7358 139.381C77.9702 139.254 78.1509 139.098 78.2778 138.913C78.4097 138.727 78.478 138.551 78.4829 138.385L79.0396 139.279C78.9614 139.479 78.854 139.687 78.7173 139.901C78.5854 140.116 78.417 140.319 78.2119 140.509C78.0068 140.695 77.7603 140.849 77.4722 140.971C77.1841 141.088 76.8423 141.146 76.4468 141.146C75.9438 141.146 75.4873 141.046 75.0771 140.846C74.6719 140.641 74.3496 140.36 74.1104 140.004C73.876 139.643 73.7588 139.232 73.7588 138.773C73.7588 138.358 73.8369 137.99 73.9932 137.667C74.1494 137.345 74.3789 137.074 74.6816 136.854C74.9893 136.63 75.3726 136.461 75.8315 136.349C76.2905 136.232 76.8228 136.173 77.4282 136.173H78.6514ZM86.0708 137.689H83.5879L83.5732 136.305H85.624C85.8975 136.305 86.1196 136.278 86.2905 136.225C86.4614 136.166 86.5859 136.081 86.6641 135.968C86.7471 135.851 86.7886 135.709 86.7886 135.543C86.7886 135.397 86.7617 135.272 86.708 135.17C86.6592 135.062 86.5835 134.975 86.481 134.906C86.3784 134.838 86.249 134.789 86.0928 134.76C85.9414 134.726 85.7632 134.708 85.5581 134.708H84.3716V141H82.2622V133.075H85.5581C86.0757 133.075 86.5396 133.122 86.9497 133.214C87.3599 133.302 87.709 133.437 87.9971 133.617C88.29 133.798 88.5122 134.027 88.6636 134.306C88.8198 134.579 88.8979 134.904 88.8979 135.28C88.8979 135.524 88.8418 135.753 88.7295 135.968C88.6221 136.183 88.4609 136.374 88.2461 136.54C88.0312 136.706 87.7651 136.842 87.4478 136.95C87.1353 137.052 86.7739 137.116 86.3638 137.14L86.0708 137.689ZM86.0708 141H83.0679L83.793 139.367H86.0708C86.3296 139.367 86.542 139.335 86.708 139.271C86.874 139.208 86.9961 139.115 87.0742 138.993C87.1572 138.866 87.1987 138.715 87.1987 138.539C87.1987 138.368 87.1621 138.219 87.0889 138.092C87.0156 137.965 86.896 137.868 86.73 137.799C86.5688 137.726 86.3491 137.689 86.0708 137.689H84.1006L84.1152 136.305H86.3564L86.8691 136.862C87.4258 136.896 87.8848 137.001 88.2461 137.177C88.6074 137.353 88.8735 137.577 89.0444 137.851C89.2202 138.119 89.3081 138.415 89.3081 138.737C89.3081 139.113 89.2373 139.442 89.0957 139.726C88.9541 140.009 88.7441 140.246 88.4658 140.436C88.1924 140.622 87.8555 140.763 87.4551 140.861C87.0547 140.954 86.5933 141 86.0708 141ZM94.8818 139.213V135.683C94.8818 135.429 94.8403 135.211 94.7573 135.031C94.6743 134.845 94.5449 134.701 94.3691 134.599C94.1982 134.496 93.9761 134.445 93.7026 134.445C93.4683 134.445 93.2656 134.486 93.0947 134.569C92.9238 134.647 92.792 134.762 92.6992 134.914C92.6064 135.06 92.5601 135.233 92.5601 135.434H90.4507C90.4507 135.097 90.5288 134.777 90.6851 134.474C90.8413 134.171 91.0684 133.905 91.3662 133.676C91.6641 133.441 92.0181 133.258 92.4282 133.126C92.8433 132.995 93.3071 132.929 93.8198 132.929C94.4351 132.929 94.9819 133.031 95.4604 133.236C95.939 133.441 96.3149 133.749 96.5884 134.159C96.8667 134.569 97.0059 135.082 97.0059 135.697V139.088C97.0059 139.523 97.0327 139.879 97.0864 140.158C97.1401 140.431 97.2183 140.67 97.3208 140.875V141H95.1895C95.0869 140.785 95.0088 140.517 94.9551 140.194C94.9062 139.867 94.8818 139.54 94.8818 139.213ZM95.1602 136.173L95.1748 137.367H93.9956C93.7173 137.367 93.4756 137.399 93.2705 137.462C93.0654 137.526 92.897 137.616 92.7651 137.733C92.6333 137.846 92.5356 137.978 92.4722 138.129C92.4136 138.28 92.3843 138.446 92.3843 138.627C92.3843 138.808 92.4258 138.971 92.5088 139.118C92.5918 139.259 92.7114 139.372 92.8677 139.455C93.0239 139.533 93.207 139.572 93.417 139.572C93.7344 139.572 94.0103 139.508 94.2446 139.381C94.479 139.254 94.6597 139.098 94.7866 138.913C94.9185 138.727 94.9868 138.551 94.9917 138.385L95.5483 139.279C95.4702 139.479 95.3628 139.687 95.2261 139.901C95.0942 140.116 94.9258 140.319 94.7207 140.509C94.5156 140.695 94.269 140.849 93.981 140.971C93.6929 141.088 93.3511 141.146 92.9556 141.146C92.4526 141.146 91.9961 141.046 91.5859 140.846C91.1807 140.641 90.8584 140.36 90.6191 140.004C90.3848 139.643 90.2676 139.232 90.2676 138.773C90.2676 138.358 90.3457 137.99 90.502 137.667C90.6582 137.345 90.8877 137.074 91.1904 136.854C91.498 136.63 91.8813 136.461 92.3403 136.349C92.7993 136.232 93.3315 136.173 93.937 136.173H95.1602ZM102.55 133.075V141H100.434V133.075H102.55ZM105.099 133.075V134.708H97.9214V133.075H105.099ZM110.336 139.213V135.683C110.336 135.429 110.294 135.211 110.211 135.031C110.128 134.845 109.999 134.701 109.823 134.599C109.652 134.496 109.43 134.445 109.157 134.445C108.922 134.445 108.72 134.486 108.549 134.569C108.378 134.647 108.246 134.762 108.153 134.914C108.061 135.06 108.014 135.233 108.014 135.434H105.905C105.905 135.097 105.983 134.777 106.139 134.474C106.295 134.171 106.522 133.905 106.82 133.676C107.118 133.441 107.472 133.258 107.882 133.126C108.297 132.995 108.761 132.929 109.274 132.929C109.889 132.929 110.436 133.031 110.915 133.236C111.393 133.441 111.769 133.749 112.042 134.159C112.321 134.569 112.46 135.082 112.46 135.697V139.088C112.46 139.523 112.487 139.879 112.541 140.158C112.594 140.431 112.672 140.67 112.775 140.875V141H110.644C110.541 140.785 110.463 140.517 110.409 140.194C110.36 139.867 110.336 139.54 110.336 139.213ZM110.614 136.173L110.629 137.367H109.45C109.171 137.367 108.93 137.399 108.725 137.462C108.52 137.526 108.351 137.616 108.219 137.733C108.087 137.846 107.99 137.978 107.926 138.129C107.868 138.28 107.838 138.446 107.838 138.627C107.838 138.808 107.88 138.971 107.963 139.118C108.046 139.259 108.166 139.372 108.322 139.455C108.478 139.533 108.661 139.572 108.871 139.572C109.188 139.572 109.464 139.508 109.699 139.381C109.933 139.254 110.114 139.098 110.241 138.913C110.373 138.727 110.441 138.551 110.446 138.385L111.002 139.279C110.924 139.479 110.817 139.687 110.68 139.901C110.548 140.116 110.38 140.319 110.175 140.509C109.97 140.695 109.723 140.849 109.435 140.971C109.147 141.088 108.805 141.146 108.41 141.146C107.907 141.146 107.45 141.046 107.04 140.846C106.635 140.641 106.312 140.36 106.073 140.004C105.839 139.643 105.722 139.232 105.722 138.773C105.722 138.358 105.8 137.99 105.956 137.667C106.112 137.345 106.342 137.074 106.645 136.854C106.952 136.63 107.335 136.461 107.794 136.349C108.253 136.232 108.786 136.173 109.391 136.173H110.614ZM116.195 134.599V144.047H114.086V133.075H116.042L116.195 134.599ZM121.212 136.95V137.104C121.212 137.68 121.144 138.214 121.007 138.708C120.875 139.201 120.68 139.63 120.421 139.997C120.163 140.358 119.84 140.641 119.455 140.846C119.074 141.046 118.634 141.146 118.136 141.146C117.653 141.146 117.233 141.049 116.876 140.854C116.52 140.658 116.22 140.385 115.976 140.033C115.736 139.677 115.543 139.264 115.397 138.795C115.25 138.327 115.138 137.824 115.06 137.287V136.884C115.138 136.308 115.25 135.78 115.397 135.302C115.543 134.818 115.736 134.401 115.976 134.049C116.22 133.693 116.518 133.417 116.869 133.222C117.226 133.026 117.643 132.929 118.122 132.929C118.625 132.929 119.066 133.024 119.447 133.214C119.833 133.405 120.155 133.678 120.414 134.035C120.678 134.391 120.875 134.816 121.007 135.309C121.144 135.802 121.212 136.349 121.212 136.95ZM119.096 137.104V136.95C119.096 136.613 119.066 136.303 119.008 136.02C118.954 135.731 118.866 135.48 118.744 135.265C118.627 135.05 118.471 134.884 118.275 134.767C118.085 134.645 117.853 134.584 117.58 134.584C117.292 134.584 117.045 134.63 116.84 134.723C116.64 134.816 116.476 134.95 116.349 135.126C116.222 135.302 116.127 135.512 116.063 135.756C116 136 115.961 136.276 115.946 136.583V137.602C115.971 137.963 116.039 138.288 116.151 138.576C116.264 138.859 116.437 139.083 116.671 139.25C116.906 139.416 117.213 139.499 117.594 139.499C117.873 139.499 118.107 139.438 118.297 139.315C118.488 139.188 118.642 139.015 118.759 138.795C118.881 138.576 118.966 138.322 119.015 138.034C119.069 137.746 119.096 137.436 119.096 137.104Z" fill="white"/>
<defs>
<clipPath id="clip0_765_215">
<rect width="32" height="32" fill="white" transform="translate(44 42)"/>
</clipPath>
</defs>
</svg>
