<svg width="187" height="145" viewBox="0 0 187 145" fill="none" xmlns="http://www.w3.org/2000/svg">
<path d="M14.6768 130.336V141H12.4795V132.057H8.19482V141H5.99756V130.336H14.6768ZM18.5732 134.599V144.047H16.4639V133.075H18.4194L18.5732 134.599ZM23.5903 136.95V137.104C23.5903 137.68 23.522 138.214 23.3853 138.708C23.2534 139.201 23.0581 139.63 22.7993 139.997C22.5405 140.358 22.2183 140.641 21.8325 140.846C21.4517 141.046 21.0122 141.146 20.5142 141.146C20.0308 141.146 19.6108 141.049 19.2544 140.854C18.8979 140.658 18.5977 140.385 18.3535 140.033C18.1143 139.677 17.9214 139.264 17.7749 138.795C17.6284 138.327 17.5161 137.824 17.438 137.287V136.884C17.5161 136.308 17.6284 135.78 17.7749 135.302C17.9214 134.818 18.1143 134.401 18.3535 134.049C18.5977 133.693 18.8955 133.417 19.2471 133.222C19.6035 133.026 20.021 132.929 20.4995 132.929C21.0024 132.929 21.4443 133.024 21.8252 133.214C22.2109 133.405 22.5332 133.678 22.792 134.035C23.0557 134.391 23.2534 134.816 23.3853 135.309C23.522 135.802 23.5903 136.349 23.5903 136.95ZM21.4736 137.104V136.95C21.4736 136.613 21.4443 136.303 21.3857 136.02C21.332 135.731 21.2441 135.48 21.1221 135.265C21.0049 135.05 20.8486 134.884 20.6533 134.767C20.4629 134.645 20.231 134.584 19.9575 134.584C19.6694 134.584 19.4229 134.63 19.2178 134.723C19.0176 134.816 18.854 134.95 18.7271 135.126C18.6001 135.302 18.5049 135.512 18.4414 135.756C18.3779 136 18.3389 136.276 18.3242 136.583V137.602C18.3486 137.963 18.417 138.288 18.5293 138.576C18.6416 138.859 18.8149 139.083 19.0493 139.25C19.2837 139.416 19.5913 139.499 19.9722 139.499C20.2505 139.499 20.4849 139.438 20.6753 139.315C20.8657 139.188 21.0195 139.015 21.1367 138.795C21.2588 138.576 21.3442 138.322 21.3931 138.034C21.4468 137.746 21.4736 137.436 21.4736 137.104ZM27.0034 138.056L29.6621 133.075H31.7715V141H29.6621V136.012L27.0034 141H24.894V133.075H27.0034V138.056ZM38.7295 133.075V134.73H34.833V133.075H38.7295ZM40.2749 133.075V141H38.1655V133.075H40.2749ZM34.3057 133.075H36.3784L36.166 137.074C36.1367 137.646 36.0757 138.148 35.9829 138.583C35.8901 139.018 35.7656 139.389 35.6094 139.696C35.458 140.004 35.2749 140.255 35.0601 140.451C34.8501 140.641 34.6035 140.78 34.3203 140.868C34.042 140.956 33.7344 141 33.3975 141H32.7529L32.731 139.337L33.002 139.308C33.1582 139.293 33.2949 139.25 33.4121 139.176C33.5342 139.098 33.6367 138.988 33.7197 138.847C33.8076 138.7 33.8809 138.517 33.9395 138.297C33.998 138.073 34.0444 137.809 34.0786 137.506C34.1177 137.204 34.1445 136.854 34.1592 136.459L34.3057 133.075ZM41.5713 137.118V136.964C41.5713 136.383 41.6543 135.849 41.8203 135.36C41.9863 134.867 42.228 134.44 42.5454 134.079C42.8628 133.717 43.2534 133.437 43.7173 133.236C44.1812 133.031 44.7134 132.929 45.314 132.929C45.9146 132.929 46.4492 133.031 46.918 133.236C47.3867 133.437 47.7798 133.717 48.0972 134.079C48.4194 134.44 48.6636 134.867 48.8296 135.36C48.9956 135.849 49.0786 136.383 49.0786 136.964V137.118C49.0786 137.694 48.9956 138.229 48.8296 138.722C48.6636 139.21 48.4194 139.638 48.0972 140.004C47.7798 140.365 47.3892 140.646 46.9253 140.846C46.4614 141.046 45.9292 141.146 45.3286 141.146C44.728 141.146 44.1934 141.046 43.7246 140.846C43.2607 140.646 42.8677 140.365 42.5454 140.004C42.228 139.638 41.9863 139.21 41.8203 138.722C41.6543 138.229 41.5713 137.694 41.5713 137.118ZM43.6807 136.964V137.118C43.6807 137.45 43.71 137.76 43.7686 138.048C43.8271 138.336 43.9199 138.59 44.0469 138.81C44.1787 139.025 44.3496 139.193 44.5596 139.315C44.7695 139.438 45.0259 139.499 45.3286 139.499C45.6216 139.499 45.873 139.438 46.083 139.315C46.293 139.193 46.4614 139.025 46.5884 138.81C46.7153 138.59 46.8081 138.336 46.8667 138.048C46.9302 137.76 46.9619 137.45 46.9619 137.118V136.964C46.9619 136.642 46.9302 136.339 46.8667 136.056C46.8081 135.768 46.7129 135.514 46.5811 135.294C46.4541 135.07 46.2856 134.894 46.0757 134.767C45.8657 134.64 45.6118 134.577 45.314 134.577C45.0161 134.577 44.7622 134.64 44.5522 134.767C44.3472 134.894 44.1787 135.07 44.0469 135.294C43.9199 135.514 43.8271 135.768 43.7686 136.056C43.71 136.339 43.6807 136.642 43.6807 136.964ZM53.0117 138.012L49.7158 133.075H52.3306L54.0151 136.063H55.5312L55.2749 138.012H53.0117ZM54.0444 137.653L52.2354 141H49.6938L52.3232 136.635L54.0444 137.653ZM56.9009 133.075V141H54.7915V133.075H56.9009ZM61.9985 133.075L58.7026 138.012H56.4395L56.1831 136.063H57.6992L59.3765 133.075H61.9985ZM59.4717 141L57.6626 137.653L59.4497 136.635L62.0645 141H59.4717ZM65.1919 138.056L67.8506 133.075H69.96V141H67.8506V136.012L65.1919 141H63.0825V133.075H65.1919V138.056ZM75.6216 133.075V141H73.5049V133.075H75.6216ZM78.1704 133.075V134.708H70.9927V133.075H78.1704ZM80.7046 135.426H83.0044C83.7271 135.426 84.3423 135.546 84.8501 135.785C85.3628 136.02 85.7534 136.347 86.022 136.767C86.2954 137.187 86.4321 137.672 86.4321 138.224C86.4321 138.625 86.354 138.996 86.1978 139.337C86.0464 139.674 85.8242 139.967 85.5312 140.216C85.2383 140.465 84.8794 140.658 84.4546 140.795C84.0298 140.932 83.5464 141 83.0044 141H79.3862V133.075H81.5029V139.359H83.0044C83.3218 139.359 83.5757 139.308 83.7661 139.206C83.9614 139.098 84.103 138.959 84.1909 138.788C84.2837 138.617 84.3301 138.432 84.3301 138.231C84.3301 138.021 84.2837 137.831 84.1909 137.66C84.103 137.484 83.9614 137.343 83.7661 137.235C83.5757 137.128 83.3218 137.074 83.0044 137.074H80.7046V135.426ZM101.007 137.089V137.243C101.007 137.814 100.944 138.339 100.817 138.817C100.695 139.291 100.509 139.704 100.26 140.055C100.011 140.402 99.7061 140.67 99.3447 140.861C98.9834 141.051 98.5659 141.146 98.0923 141.146C97.6528 141.146 97.272 141.063 96.9497 140.897C96.6323 140.727 96.3638 140.49 96.144 140.187C95.9292 139.879 95.7534 139.523 95.6167 139.118C95.4849 138.708 95.3872 138.266 95.3237 137.792V136.525C95.3872 136.017 95.4849 135.546 95.6167 135.111C95.7485 134.672 95.9219 134.289 96.1367 133.961C96.3564 133.634 96.625 133.38 96.9424 133.2C97.2598 133.019 97.6382 132.929 98.0776 132.929C98.4585 132.929 98.8027 132.995 99.1104 133.126C99.4229 133.258 99.6963 133.446 99.9307 133.69C100.17 133.935 100.368 134.23 100.524 134.577C100.685 134.918 100.805 135.302 100.883 135.727C100.966 136.151 101.007 136.605 101.007 137.089ZM98.8906 137.243V137.089C98.8906 136.815 98.8735 136.554 98.8394 136.305C98.8101 136.051 98.7612 135.819 98.6929 135.609C98.6294 135.399 98.5439 135.219 98.4365 135.067C98.3291 134.911 98.1997 134.792 98.0483 134.708C97.897 134.621 97.7236 134.577 97.5283 134.577C97.1865 134.577 96.9058 134.645 96.686 134.782C96.4712 134.914 96.3101 135.104 96.2026 135.353C96.1001 135.597 96.0415 135.885 96.0269 136.217V138.107C96.0464 138.39 96.1074 138.637 96.21 138.847C96.3174 139.052 96.4785 139.213 96.6934 139.33C96.9131 139.442 97.1963 139.499 97.543 139.499C97.792 139.499 98.002 139.442 98.1729 139.33C98.3486 139.218 98.4878 139.059 98.5903 138.854C98.6978 138.649 98.7734 138.412 98.8174 138.144C98.8662 137.87 98.8906 137.57 98.8906 137.243ZM91.0391 137.243V137.089C91.0391 136.605 91.0806 136.151 91.1636 135.727C91.2466 135.302 91.3662 134.918 91.5225 134.577C91.6836 134.23 91.8813 133.935 92.1157 133.69C92.3501 133.446 92.6211 133.258 92.9287 133.126C93.2412 132.995 93.5879 132.929 93.9688 132.929C94.4033 132.929 94.7793 133.019 95.0967 133.2C95.4141 133.38 95.6802 133.634 95.895 133.961C96.1099 134.289 96.2832 134.672 96.415 135.111C96.5469 135.546 96.647 136.017 96.7153 136.525V137.733C96.647 138.222 96.5469 138.673 96.415 139.088C96.2832 139.499 96.1074 139.86 95.8877 140.172C95.6729 140.48 95.4067 140.719 95.0894 140.89C94.772 141.061 94.3936 141.146 93.9541 141.146C93.4854 141.146 93.0679 141.051 92.7017 140.861C92.3403 140.67 92.0352 140.402 91.7861 140.055C91.542 139.704 91.3564 139.291 91.2295 138.817C91.1025 138.339 91.0391 137.814 91.0391 137.243ZM93.1484 137.089V137.243C93.1484 137.57 93.1704 137.87 93.2144 138.144C93.2632 138.412 93.3389 138.649 93.4414 138.854C93.5488 139.054 93.688 139.21 93.8589 139.323C94.0298 139.435 94.2397 139.491 94.4888 139.491C94.8403 139.491 95.1235 139.433 95.3384 139.315C95.5581 139.198 95.7217 139.032 95.8291 138.817C95.9365 138.603 95.9951 138.346 96.0049 138.048V136.217C95.9951 135.885 95.9365 135.597 95.8291 135.353C95.7266 135.104 95.5679 134.914 95.353 134.782C95.1382 134.645 94.855 134.577 94.5034 134.577C94.2544 134.577 94.042 134.643 93.8662 134.774C93.6953 134.906 93.5562 135.087 93.4487 135.316C93.3462 135.546 93.2705 135.814 93.2217 136.122C93.1729 136.425 93.1484 136.747 93.1484 137.089ZM94.9502 144.047V129.75H97.0669V144.047H94.9502ZM101.996 137.118V136.964C101.996 136.383 102.079 135.849 102.245 135.36C102.411 134.867 102.653 134.44 102.97 134.079C103.288 133.717 103.678 133.437 104.142 133.236C104.606 133.031 105.138 132.929 105.739 132.929C106.339 132.929 106.874 133.031 107.343 133.236C107.812 133.437 108.205 133.717 108.522 134.079C108.844 134.44 109.088 134.867 109.254 135.36C109.42 135.849 109.503 136.383 109.503 136.964V137.118C109.503 137.694 109.42 138.229 109.254 138.722C109.088 139.21 108.844 139.638 108.522 140.004C108.205 140.365 107.814 140.646 107.35 140.846C106.886 141.046 106.354 141.146 105.753 141.146C105.153 141.146 104.618 141.046 104.149 140.846C103.686 140.646 103.292 140.365 102.97 140.004C102.653 139.638 102.411 139.21 102.245 138.722C102.079 138.229 101.996 137.694 101.996 137.118ZM104.105 136.964V137.118C104.105 137.45 104.135 137.76 104.193 138.048C104.252 138.336 104.345 138.59 104.472 138.81C104.604 139.025 104.774 139.193 104.984 139.315C105.194 139.438 105.451 139.499 105.753 139.499C106.046 139.499 106.298 139.438 106.508 139.315C106.718 139.193 106.886 139.025 107.013 138.81C107.14 138.59 107.233 138.336 107.292 138.048C107.355 137.76 107.387 137.45 107.387 137.118V136.964C107.387 136.642 107.355 136.339 107.292 136.056C107.233 135.768 107.138 135.514 107.006 135.294C106.879 135.07 106.71 134.894 106.5 134.767C106.291 134.64 106.037 134.577 105.739 134.577C105.441 134.577 105.187 134.64 104.977 134.767C104.772 134.894 104.604 135.07 104.472 135.294C104.345 135.514 104.252 135.768 104.193 136.056C104.135 136.339 104.105 136.642 104.105 136.964ZM114.63 133.075V141H112.514V133.075H114.63ZM117.179 133.075V134.708H110.001V133.075H117.179ZM117.67 137.118V136.964C117.67 136.383 117.753 135.849 117.919 135.36C118.085 134.867 118.327 134.44 118.644 134.079C118.961 133.717 119.352 133.437 119.816 133.236C120.28 133.031 120.812 132.929 121.413 132.929C122.013 132.929 122.548 133.031 123.017 133.236C123.485 133.437 123.878 133.717 124.196 134.079C124.518 134.44 124.762 134.867 124.928 135.36C125.094 135.849 125.177 136.383 125.177 136.964V137.118C125.177 137.694 125.094 138.229 124.928 138.722C124.762 139.21 124.518 139.638 124.196 140.004C123.878 140.365 123.488 140.646 123.024 140.846C122.56 141.046 122.028 141.146 121.427 141.146C120.827 141.146 120.292 141.046 119.823 140.846C119.359 140.646 118.966 140.365 118.644 140.004C118.327 139.638 118.085 139.21 117.919 138.722C117.753 138.229 117.67 137.694 117.67 137.118ZM119.779 136.964V137.118C119.779 137.45 119.809 137.76 119.867 138.048C119.926 138.336 120.019 138.59 120.146 138.81C120.277 139.025 120.448 139.193 120.658 139.315C120.868 139.438 121.125 139.499 121.427 139.499C121.72 139.499 121.972 139.438 122.182 139.315C122.392 139.193 122.56 139.025 122.687 138.81C122.814 138.59 122.907 138.336 122.965 138.048C123.029 137.76 123.061 137.45 123.061 137.118V136.964C123.061 136.642 123.029 136.339 122.965 136.056C122.907 135.768 122.812 135.514 122.68 135.294C122.553 135.07 122.384 134.894 122.174 134.767C121.964 134.64 121.71 134.577 121.413 134.577C121.115 134.577 120.861 134.64 120.651 134.767C120.446 134.894 120.277 135.07 120.146 135.294C120.019 135.514 119.926 135.768 119.867 136.056C119.809 136.339 119.779 136.642 119.779 136.964ZM129.872 137.118V136.964C129.872 136.383 129.955 135.849 130.121 135.36C130.287 134.867 130.529 134.44 130.846 134.079C131.164 133.717 131.554 133.437 132.018 133.236C132.482 133.031 133.014 132.929 133.615 132.929C134.215 132.929 134.75 133.031 135.219 133.236C135.688 133.437 136.081 133.717 136.398 134.079C136.72 134.44 136.964 134.867 137.13 135.36C137.296 135.849 137.379 136.383 137.379 136.964V137.118C137.379 137.694 137.296 138.229 137.13 138.722C136.964 139.21 136.72 139.638 136.398 140.004C136.081 140.365 135.69 140.646 135.226 140.846C134.762 141.046 134.23 141.146 133.629 141.146C133.029 141.146 132.494 141.046 132.025 140.846C131.562 140.646 131.168 140.365 130.846 140.004C130.529 139.638 130.287 139.21 130.121 138.722C129.955 138.229 129.872 137.694 129.872 137.118ZM131.981 136.964V137.118C131.981 137.45 132.011 137.76 132.069 138.048C132.128 138.336 132.221 138.59 132.348 138.81C132.479 139.025 132.65 139.193 132.86 139.315C133.07 139.438 133.327 139.499 133.629 139.499C133.922 139.499 134.174 139.438 134.384 139.315C134.594 139.193 134.762 139.025 134.889 138.81C135.016 138.59 135.109 138.336 135.167 138.048C135.231 137.76 135.263 137.45 135.263 137.118V136.964C135.263 136.642 135.231 136.339 135.167 136.056C135.109 135.768 135.014 135.514 134.882 135.294C134.755 135.07 134.586 134.894 134.376 134.767C134.167 134.64 133.913 134.577 133.615 134.577C133.317 134.577 133.063 134.64 132.853 134.767C132.648 134.894 132.479 135.07 132.348 135.294C132.221 135.514 132.128 135.768 132.069 136.056C132.011 136.339 131.981 136.642 131.981 136.964ZM142.506 133.075V141H140.39V133.075H142.506ZM145.055 133.075V134.708H137.877V133.075H145.055ZM149.662 137.221H148.095V136.276H149.215C149.479 136.276 149.689 136.239 149.845 136.166C150.006 136.093 150.121 135.99 150.189 135.858C150.263 135.722 150.299 135.568 150.299 135.397C150.299 135.246 150.268 135.102 150.204 134.965C150.146 134.823 150.038 134.708 149.882 134.621C149.73 134.528 149.516 134.481 149.237 134.481C149.008 134.481 148.803 134.516 148.622 134.584C148.446 134.652 148.307 134.752 148.205 134.884C148.107 135.011 148.058 135.165 148.058 135.346H145.941C145.941 134.843 146.085 134.413 146.374 134.057C146.662 133.695 147.047 133.419 147.531 133.229C148.014 133.034 148.544 132.936 149.12 132.936C149.623 132.936 150.077 132.987 150.482 133.09C150.888 133.188 151.234 133.334 151.522 133.529C151.811 133.725 152.03 133.966 152.182 134.254C152.338 134.538 152.416 134.867 152.416 135.243C152.416 135.512 152.353 135.766 152.226 136.005C152.099 136.244 151.916 136.457 151.676 136.642C151.437 136.823 151.146 136.964 150.805 137.067C150.468 137.169 150.087 137.221 149.662 137.221ZM148.095 136.693H149.662C150.136 136.693 150.551 136.74 150.907 136.833C151.269 136.92 151.571 137.052 151.815 137.228C152.06 137.404 152.243 137.621 152.365 137.88C152.492 138.134 152.555 138.427 152.555 138.759C152.555 139.135 152.472 139.472 152.306 139.77C152.14 140.062 151.903 140.312 151.596 140.517C151.288 140.722 150.924 140.878 150.504 140.985C150.084 141.093 149.623 141.146 149.12 141.146C148.583 141.146 148.061 141.059 147.553 140.883C147.045 140.707 146.627 140.436 146.3 140.07C145.978 139.704 145.817 139.232 145.817 138.656H147.934C147.934 138.822 147.982 138.979 148.08 139.125C148.178 139.271 148.324 139.389 148.52 139.477C148.715 139.56 148.957 139.601 149.245 139.601C149.533 139.601 149.765 139.555 149.94 139.462C150.116 139.369 150.243 139.247 150.321 139.096C150.404 138.939 150.446 138.778 150.446 138.612C150.446 138.378 150.399 138.188 150.307 138.041C150.219 137.895 150.082 137.787 149.896 137.719C149.716 137.65 149.489 137.616 149.215 137.616H148.095V136.693ZM155.309 135.426H157.609C158.332 135.426 158.947 135.546 159.455 135.785C159.967 136.02 160.358 136.347 160.626 136.767C160.9 137.187 161.037 137.672 161.037 138.224C161.037 138.625 160.958 138.996 160.802 139.337C160.651 139.674 160.429 139.967 160.136 140.216C159.843 140.465 159.484 140.658 159.059 140.795C158.634 140.932 158.151 141 157.609 141H153.991V133.075H156.107V139.359H157.609C157.926 139.359 158.18 139.308 158.371 139.206C158.566 139.098 158.708 138.959 158.795 138.788C158.888 138.617 158.935 138.432 158.935 138.231C158.935 138.021 158.888 137.831 158.795 137.66C158.708 137.484 158.566 137.343 158.371 137.235C158.18 137.128 157.926 137.074 157.609 137.074H155.309V135.426ZM164.42 133.075V141H162.311V133.075H164.42ZM170.221 137.689H167.738L167.724 136.305H169.774C170.048 136.305 170.27 136.278 170.441 136.225C170.612 136.166 170.736 136.081 170.814 135.968C170.897 135.851 170.939 135.709 170.939 135.543C170.939 135.397 170.912 135.272 170.858 135.17C170.81 135.062 170.734 134.975 170.631 134.906C170.529 134.838 170.399 134.789 170.243 134.76C170.092 134.726 169.914 134.708 169.708 134.708H168.522V141H166.413V133.075H169.708C170.226 133.075 170.69 133.122 171.1 133.214C171.51 133.302 171.859 133.437 172.147 133.617C172.44 133.798 172.663 134.027 172.814 134.306C172.97 134.579 173.048 134.904 173.048 135.28C173.048 135.524 172.992 135.753 172.88 135.968C172.772 136.183 172.611 136.374 172.396 136.54C172.182 136.706 171.916 136.842 171.598 136.95C171.286 137.052 170.924 137.116 170.514 137.14L170.221 137.689ZM170.221 141H167.218L167.943 139.367H170.221C170.48 139.367 170.692 139.335 170.858 139.271C171.024 139.208 171.146 139.115 171.225 138.993C171.308 138.866 171.349 138.715 171.349 138.539C171.349 138.368 171.312 138.219 171.239 138.092C171.166 137.965 171.046 137.868 170.88 137.799C170.719 137.726 170.5 137.689 170.221 137.689H168.251L168.266 136.305H170.507L171.02 136.862C171.576 136.896 172.035 137.001 172.396 137.177C172.758 137.353 173.024 137.577 173.195 137.851C173.371 138.119 173.458 138.415 173.458 138.737C173.458 139.113 173.388 139.442 173.246 139.726C173.104 140.009 172.895 140.246 172.616 140.436C172.343 140.622 172.006 140.763 171.605 140.861C171.205 140.954 170.744 141 170.221 141ZM179.032 139.213V135.683C179.032 135.429 178.991 135.211 178.908 135.031C178.825 134.845 178.695 134.701 178.52 134.599C178.349 134.496 178.126 134.445 177.853 134.445C177.619 134.445 177.416 134.486 177.245 134.569C177.074 134.647 176.942 134.762 176.85 134.914C176.757 135.06 176.71 135.233 176.71 135.434H174.601C174.601 135.097 174.679 134.777 174.835 134.474C174.992 134.171 175.219 133.905 175.517 133.676C175.814 133.441 176.168 133.258 176.579 133.126C176.994 132.995 177.458 132.929 177.97 132.929C178.585 132.929 179.132 133.031 179.611 133.236C180.089 133.441 180.465 133.749 180.739 134.159C181.017 134.569 181.156 135.082 181.156 135.697V139.088C181.156 139.523 181.183 139.879 181.237 140.158C181.291 140.431 181.369 140.67 181.471 140.875V141H179.34C179.237 140.785 179.159 140.517 179.105 140.194C179.057 139.867 179.032 139.54 179.032 139.213ZM179.311 136.173L179.325 137.367H178.146C177.868 137.367 177.626 137.399 177.421 137.462C177.216 137.526 177.047 137.616 176.916 137.733C176.784 137.846 176.686 137.978 176.623 138.129C176.564 138.28 176.535 138.446 176.535 138.627C176.535 138.808 176.576 138.971 176.659 139.118C176.742 139.259 176.862 139.372 177.018 139.455C177.174 139.533 177.357 139.572 177.567 139.572C177.885 139.572 178.161 139.508 178.395 139.381C178.629 139.254 178.81 139.098 178.937 138.913C179.069 138.727 179.137 138.551 179.142 138.385L179.699 139.279C179.621 139.479 179.513 139.687 179.376 139.901C179.245 140.116 179.076 140.319 178.871 140.509C178.666 140.695 178.419 140.849 178.131 140.971C177.843 141.088 177.501 141.146 177.106 141.146C176.603 141.146 176.146 141.046 175.736 140.846C175.331 140.641 175.009 140.36 174.77 140.004C174.535 139.643 174.418 139.232 174.418 138.773C174.418 138.358 174.496 137.99 174.652 137.667C174.809 137.345 175.038 137.074 175.341 136.854C175.648 136.63 176.032 136.461 176.491 136.349C176.95 136.232 177.482 136.173 178.087 136.173H179.311Z" fill="white"/>
<path d="M110 59.8588L94.8711 74.9426C93.0177 76.7904 90.504 77.8286 87.8829 77.8286C85.2618 77.8286 82.748 76.7904 80.8946 74.9426C79.0412 73.0947 78 70.5884 78 67.9752C78 65.3619 79.0412 62.8556 80.8946 61.0077L96.0235 45.924C97.2591 44.6921 98.9349 44 100.682 44C102.43 44 104.106 44.6921 105.341 45.924C106.577 47.1559 107.271 48.8267 107.271 50.5689C107.271 52.3111 106.577 53.982 105.341 55.2139L90.1958 70.2976C89.578 70.9136 88.7401 71.2596 87.8664 71.2596C86.9927 71.2596 86.1548 70.9136 85.537 70.2976C84.9192 69.6817 84.5721 68.8463 84.5721 67.9752C84.5721 67.1041 84.9192 66.2686 85.537 65.6527L99.5135 51.7343" stroke="white" stroke-width="3" stroke-linecap="round" stroke-linejoin="round"/>
</svg>
