<svg width="24" height="23" viewBox="0 0 24 23" fill="none" xmlns="http://www.w3.org/2000/svg">
<path d="M21.0253 12.3467C20.7603 12.3467 20.4833 12.2679 20.2184 12.2115C19.6818 12.101 19.1546 11.9541 18.6407 11.7722C18.082 11.5821 17.4679 11.592 16.9165 11.7999C16.3651 12.0079 15.9154 12.3993 15.654 12.8987L15.389 13.4056C14.216 12.7953 13.1381 12.0372 12.1855 11.1526C11.2399 10.2616 10.4294 9.25337 9.7769 8.15617L10.2827 7.84075C10.8167 7.59621 11.2351 7.17559 11.4574 6.65984C11.6797 6.14409 11.6903 5.56964 11.487 5.04705C11.2958 4.56538 11.1389 4.0724 11.0174 3.57134C10.9571 3.32351 10.909 3.06442 10.8728 2.80533C10.7266 2.01185 10.2823 1.29328 9.61988 0.779034C8.9575 0.264787 8.12059 -0.0113481 7.25986 0.00035744H3.64689C3.12787 -0.00420096 2.61388 0.0958992 2.13993 0.293843C1.66598 0.491787 1.2432 0.782928 0.900349 1.14745C0.557503 1.51196 0.302649 1.9413 0.153136 2.40623C0.00362344 2.87115 -0.0370371 3.36075 0.0339224 3.8417C0.675512 8.56101 2.97973 12.9459 6.58261 16.3037C10.1855 19.6615 14.8817 21.8008 19.9293 22.3838H20.387C21.2751 22.385 22.1325 22.0802 22.7956 21.5276C23.1766 21.2089 23.481 20.8182 23.6886 20.3812C23.8962 19.9443 24.0023 19.4712 24 18.993V15.6136C23.9852 14.8311 23.6806 14.0776 23.1381 13.4819C22.5956 12.8861 21.8488 12.4849 21.0253 12.3467ZM21.6274 19.1057C21.6272 19.2656 21.5906 19.4237 21.52 19.5694C21.4494 19.7151 21.3464 19.845 21.218 19.9506C21.0834 20.0592 20.9261 20.1404 20.756 20.1889C20.5859 20.2374 20.4069 20.2521 20.2304 20.2322C15.7201 19.6912 11.5307 17.7612 8.32294 14.7465C5.1152 11.7318 3.07172 7.80396 2.51483 3.58261C2.49566 3.4176 2.51246 3.25066 2.56421 3.0919C2.61596 2.93313 2.70158 2.78582 2.81591 2.65888C2.92877 2.53872 3.06769 2.44242 3.22343 2.37638C3.37917 2.31034 3.54816 2.27608 3.71915 2.27587H7.33212C7.61218 2.27005 7.88566 2.35572 8.10547 2.51815C8.32529 2.68058 8.47769 2.90961 8.53645 3.1658C8.58462 3.47371 8.64484 3.77787 8.7171 4.07826C8.85622 4.67209 9.04137 5.25565 9.27108 5.82433L7.58503 6.55655C7.44087 6.61842 7.31119 6.70631 7.20345 6.81519C7.09571 6.92406 7.01201 7.05177 6.95718 7.19099C6.90235 7.3302 6.87746 7.47817 6.88393 7.62641C6.89041 7.77464 6.92812 7.92022 6.99491 8.05479C8.72818 11.5275 11.7125 14.319 15.4252 15.9402C15.7184 16.0529 16.0473 16.0529 16.3405 15.9402C16.4907 15.89 16.6287 15.8123 16.7465 15.7118C16.8644 15.6112 16.9597 15.4898 17.0269 15.3545L17.7736 13.7774C18.3962 13.9856 19.0316 14.1587 19.6764 14.2956C19.9976 14.3632 20.3228 14.4195 20.6519 14.4645C20.9258 14.5195 21.1707 14.662 21.3443 14.8677C21.518 15.0733 21.6096 15.3291 21.6034 15.591L21.6274 19.1057Z" fill="#FFC222"/>
</svg>
