<svg width="21" height="26" viewBox="0 0 21 26" fill="none" xmlns="http://www.w3.org/2000/svg">
<path d="M20.9501 9.93208C20.7767 8.04425 20.1389 6.23557 19.0987 4.68216C18.0586 3.12875 16.6516 1.88355 15.0148 1.06782C13.378 0.252089 11.5671 -0.106376 9.7585 0.027331C7.94991 0.161038 6.20523 0.782361 4.69437 1.8308C3.39637 2.73866 2.30672 3.93597 1.50367 5.33669C0.700632 6.73741 0.204141 8.30679 0.0498658 9.93208C-0.101473 11.5467 0.0926964 13.1764 0.618287 14.7028C1.14388 16.2292 1.98771 17.614 3.08856 18.7569L9.63533 25.6178C9.75016 25.7389 9.88678 25.835 10.0373 25.9006C10.1878 25.9662 10.3493 26 10.5124 26C10.6754 26 10.8369 25.9662 10.9874 25.9006C11.1379 25.835 11.2745 25.7389 11.3894 25.6178L17.9114 18.7569C19.0123 17.614 19.8561 16.2292 20.3817 14.7028C20.9073 13.1764 21.1015 11.5467 20.9501 9.93208ZM16.1821 16.9351L10.5 22.8786L4.81789 16.9351C3.98051 16.0591 3.33907 15 2.93967 13.8338C2.54028 12.6676 2.39285 11.4234 2.50799 10.1905C2.62388 8.93861 3.00427 7.7293 3.62165 6.65002C4.23903 5.57073 5.07798 4.64842 6.07784 3.94979C7.38836 3.03919 8.92668 2.55345 10.5 2.55345C12.0733 2.55345 13.6116 3.03919 14.9222 3.94979C15.919 4.64572 16.7561 5.56395 17.3733 6.63851C17.9905 7.71307 18.3726 8.91729 18.492 10.1646C18.6109 11.4017 18.4653 12.6509 18.0658 13.8219C17.6663 14.9929 17.0229 16.0563 16.1821 16.9351ZM10.5 5.24186C9.40062 5.24186 8.32592 5.58287 7.41182 6.22175C6.49771 6.86064 5.78526 7.76871 5.36454 8.83114C4.94382 9.89356 4.83375 11.0626 5.04822 12.1905C5.2627 13.3184 5.79211 14.3544 6.56949 15.1675C7.34687 15.9807 8.33732 16.5344 9.41557 16.7588C10.4938 16.9831 11.6115 16.868 12.6272 16.4279C13.6429 15.9878 14.511 15.2426 15.1218 14.2864C15.7326 13.3303 16.0586 12.2061 16.0586 11.0562C16.0553 9.51517 15.4686 8.03826 14.4269 6.94861C13.3852 5.85895 11.9732 5.24528 10.5 5.24186ZM10.5 14.2864C9.88923 14.2864 9.29218 14.0969 8.78434 13.742C8.27651 13.387 7.8807 12.8826 7.64697 12.2923C7.41324 11.7021 7.35208 11.0526 7.47124 10.426C7.59039 9.79941 7.8845 9.22385 8.31638 8.7721C8.74826 8.32035 9.29851 8.01271 9.89754 7.88807C10.4966 7.76343 11.1175 7.8274 11.6818 8.07189C12.246 8.31637 12.7283 8.73039 13.0677 9.26159C13.407 9.79279 13.5881 10.4173 13.5881 11.0562C13.5881 11.9129 13.2627 12.7345 12.6836 13.3403C12.1045 13.946 11.319 14.2864 10.5 14.2864Z" fill="#FFC222"/>
</svg>
