<svg width="57" height="75" viewBox="0 0 57 75" fill="none" xmlns="http://www.w3.org/2000/svg">
<path d="M33.2991 52.8497C32.8125 49.8472 30.6934 32.9059 42.6964 22.4909C42.8441 22.3619 43.0622 22.5308 42.9775 22.707C41.8999 24.9448 39.0564 31.5636 40.2078 36.8874C40.2313 36.9964 40.3484 37.0564 40.4493 37.0164C41.7972 36.4715 49.906 33.4835 56.9049 37.2743C57.0671 37.3615 57.0094 37.6103 56.8256 37.6158C53.9371 37.6848 42.4909 38.8745 33.627 52.9169C33.5387 53.055 33.3243 53.0132 33.2991 52.8497Z" fill="#FFC222"/>
<path d="M48.7863 32.4389C51.0982 32.4389 52.9723 30.5498 52.9723 28.2194C52.9723 25.8891 51.0982 24 48.7863 24C46.4745 24 44.6003 25.8891 44.6003 28.2194C44.6003 30.5498 46.4745 32.4389 48.7863 32.4389Z" fill="#FFC222"/>
<path d="M29.2807 47.7985C27.1995 44.3201 16.4976 24.5471 26.1741 0.115052C26.2462 -0.0684017 26.5165 -0.0211767 26.5219 0.176808C26.612 3.65516 27.1436 16.5296 30.0718 20.967C30.1421 21.0724 30.2935 21.0778 30.3673 20.9743C31.4665 19.4195 38.8979 9.87079 54.5714 11.6908C54.7678 11.7144 54.7895 11.9923 54.6002 12.045C49.9728 13.331 29.5348 20.5456 29.6123 47.704C29.6123 47.8857 29.3744 47.9565 29.2807 47.7985Z" fill="#324451"/>
<path d="M36.0256 10.1449C38.3374 10.1449 40.2116 8.25582 40.2116 5.92549C40.2116 3.59516 38.3374 1.70605 36.0256 1.70605C33.7137 1.70605 31.8396 3.59516 31.8396 5.92549C31.8396 8.25582 33.7137 10.1449 36.0256 10.1449Z" fill="#324451"/>
<path d="M24.8587 45.7134C21.5809 43.7826 5.89652 33.8179 0.0112845 16.8094C-0.0553884 16.6187 0.189678 16.4752 0.31942 16.6296C2.65658 19.3687 11.1276 29.0609 15.2397 30.5448C15.3695 30.5921 15.4776 30.5176 15.4812 30.3795C15.5317 28.6068 15.9966 17.5432 19.7987 11.7018C19.9069 11.5365 20.1627 11.6346 20.1303 11.8307C19.496 15.6524 17.3408 32.2613 25.1055 45.4663C25.201 45.6262 25.019 45.8078 24.8587 45.7134Z" fill="#FFC222"/>
<path d="M9.8321 20.057C12.144 20.057 14.0181 18.1679 14.0181 15.8376C14.0181 13.5073 12.144 11.6182 9.8321 11.6182C7.52025 11.6182 5.64612 13.5073 5.64612 15.8376C5.64612 18.1679 7.52025 20.057 9.8321 20.057Z" fill="#FFC222"/>
<path d="M13.3262 73.6484C13.3262 73.7135 13.3034 73.7721 13.2578 73.8242C13.2188 73.8763 13.1504 73.9186 13.0527 73.9512C12.9551 73.9837 12.8249 74.0098 12.6621 74.0293C12.4993 74.0488 12.291 74.0586 12.0371 74.0586C11.7897 74.0586 11.5814 74.0488 11.4121 74.0293C11.2493 74.0098 11.1191 73.9837 11.0215 73.9512C10.9238 73.9186 10.8522 73.8763 10.8066 73.8242C10.7676 73.7721 10.748 73.7135 10.748 73.6484V61.7148C10.748 61.6497 10.7676 61.5911 10.8066 61.5391C10.8522 61.487 10.9238 61.4447 11.0215 61.4121C11.1257 61.3796 11.2591 61.3535 11.4219 61.334C11.5846 61.3145 11.7897 61.3047 12.0371 61.3047C12.291 61.3047 12.4993 61.3145 12.6621 61.334C12.8249 61.3535 12.9551 61.3796 13.0527 61.4121C13.1504 61.4447 13.2188 61.487 13.2578 61.5391C13.3034 61.5911 13.3262 61.6497 13.3262 61.7148V73.6484ZM23.0234 72.9258C23.0234 73.1211 23.0137 73.2871 22.9941 73.4238C22.9811 73.554 22.9583 73.6647 22.9258 73.7559C22.8932 73.8405 22.8509 73.9023 22.7988 73.9414C22.7533 73.9805 22.6979 74 22.6328 74H16.8418C16.627 74 16.4447 73.9382 16.2949 73.8145C16.1517 73.6842 16.0801 73.4759 16.0801 73.1895V61.7148C16.0801 61.6497 16.0996 61.5911 16.1387 61.5391C16.1842 61.487 16.2559 61.4447 16.3535 61.4121C16.4512 61.3796 16.5814 61.3535 16.7441 61.334C16.9134 61.3145 17.1217 61.3047 17.3691 61.3047C17.623 61.3047 17.8314 61.3145 17.9941 61.334C18.1569 61.3535 18.2871 61.3796 18.3848 61.4121C18.4824 61.4447 18.5508 61.487 18.5898 61.5391C18.6354 61.5911 18.6582 61.6497 18.6582 61.7148V71.8809H22.6328C22.6979 71.8809 22.7533 71.9004 22.7988 71.9395C22.8509 71.972 22.8932 72.0306 22.9258 72.1152C22.9583 72.1934 22.9811 72.3008 22.9941 72.4375C23.0137 72.5677 23.0234 72.7305 23.0234 72.9258ZM36.7246 73.3457C36.6855 73.502 36.6302 73.6289 36.5586 73.7266C36.4935 73.8177 36.3926 73.8893 36.2559 73.9414C36.1191 73.987 35.9434 74.0163 35.7285 74.0293C35.5137 74.0488 35.2402 74.0586 34.9082 74.0586C34.5371 74.0586 34.2376 74.0488 34.0098 74.0293C33.7884 74.0163 33.6126 73.987 33.4824 73.9414C33.3522 73.8893 33.2578 73.8177 33.1992 73.7266C33.1406 73.6289 33.0951 73.502 33.0625 73.3457L31.041 65.3379H31.0215L29.1074 73.3457C29.0749 73.4954 29.0293 73.6191 28.9707 73.7168C28.9121 73.8079 28.8177 73.8796 28.6875 73.9316C28.5638 73.9837 28.3913 74.0163 28.1699 74.0293C27.9551 74.0488 27.6686 74.0586 27.3105 74.0586C26.9329 74.0586 26.6302 74.0488 26.4023 74.0293C26.181 74.0163 26.0052 73.987 25.875 73.9414C25.7448 73.8893 25.6504 73.8177 25.5918 73.7266C25.5332 73.6289 25.4844 73.502 25.4453 73.3457L22.5742 62.3203C22.5156 62.0859 22.4831 61.9036 22.4766 61.7734C22.4701 61.6367 22.5059 61.5326 22.584 61.4609C22.6686 61.3893 22.8021 61.347 22.9844 61.334C23.1732 61.3145 23.4336 61.3047 23.7656 61.3047C24.0716 61.3047 24.3125 61.3112 24.4883 61.3242C24.6706 61.3307 24.8073 61.3535 24.8984 61.3926C24.9896 61.4251 25.0514 61.4772 25.084 61.5488C25.1165 61.6139 25.1426 61.7083 25.1621 61.832L27.3789 71.5098H27.3887L29.6934 61.9004C29.7194 61.7767 29.752 61.6758 29.791 61.5977C29.8366 61.5195 29.9082 61.4609 30.0059 61.4219C30.11 61.3763 30.25 61.347 30.4258 61.334C30.6016 61.3145 30.8359 61.3047 31.1289 61.3047C31.4414 61.3047 31.6888 61.3112 31.8711 61.3242C32.0599 61.3372 32.2031 61.3665 32.3008 61.4121C32.4049 61.4512 32.4798 61.5098 32.5254 61.5879C32.571 61.666 32.6068 61.7702 32.6328 61.9004L35.0156 71.5098H35.0352L37.252 61.8613C37.2715 61.7572 37.2975 61.6693 37.3301 61.5977C37.3626 61.5195 37.4245 61.4609 37.5156 61.4219C37.6068 61.3763 37.737 61.347 37.9062 61.334C38.0755 61.3145 38.3132 61.3047 38.6191 61.3047C38.9056 61.3047 39.127 61.3145 39.2832 61.334C39.446 61.347 39.5632 61.3893 39.6348 61.4609C39.7064 61.5326 39.7357 61.64 39.7227 61.7832C39.7161 61.9199 39.6836 62.1087 39.625 62.3496L36.7246 73.3457ZM48.4922 72.9258C48.4922 73.1211 48.4824 73.2871 48.4629 73.4238C48.4499 73.554 48.4271 73.6647 48.3945 73.7559C48.362 73.8405 48.3197 73.9023 48.2676 73.9414C48.222 73.9805 48.1667 74 48.1016 74H42.3105C42.0957 74 41.9134 73.9382 41.7637 73.8145C41.6204 73.6842 41.5488 73.4759 41.5488 73.1895V61.7148C41.5488 61.6497 41.5684 61.5911 41.6074 61.5391C41.653 61.487 41.7246 61.4447 41.8223 61.4121C41.9199 61.3796 42.0501 61.3535 42.2129 61.334C42.3822 61.3145 42.5905 61.3047 42.8379 61.3047C43.0918 61.3047 43.3001 61.3145 43.4629 61.334C43.6257 61.3535 43.7559 61.3796 43.8535 61.4121C43.9512 61.4447 44.0195 61.487 44.0586 61.5391C44.1042 61.5911 44.127 61.6497 44.127 61.7148V71.8809H48.1016C48.1667 71.8809 48.222 71.9004 48.2676 71.9395C48.3197 71.972 48.362 72.0306 48.3945 72.1152C48.4271 72.1934 48.4499 72.3008 48.4629 72.4375C48.4824 72.5677 48.4922 72.7305 48.4922 72.9258Z" fill="#324451"/>
</svg>
