<svg width="57" height="85" viewBox="0 0 57 85" fill="none" xmlns="http://www.w3.org/2000/svg">
<path d="M33.2991 52.8496C32.8125 49.8471 30.6934 32.9058 42.6964 22.4907C42.8441 22.3618 43.0622 22.5307 42.9775 22.7069C41.8999 24.9447 39.0564 31.5635 40.2078 36.8873C40.2313 36.9963 40.3484 37.0562 40.4493 37.0163C41.7972 36.4714 49.906 33.4834 56.9049 37.2742C57.0671 37.3614 57.0094 37.6102 56.8256 37.6157C53.9371 37.6847 42.4909 38.8744 33.627 52.9168C33.5387 53.0548 33.3243 53.0131 33.2991 52.8496Z" fill="#FFC222"/>
<path d="M48.7863 32.4389C51.0982 32.4389 52.9723 30.5498 52.9723 28.2194C52.9723 25.8891 51.0982 24 48.7863 24C46.4745 24 44.6003 25.8891 44.6003 28.2194C44.6003 30.5498 46.4745 32.4389 48.7863 32.4389Z" fill="#FFC222"/>
<path d="M29.2807 47.7985C27.1995 44.3201 16.4976 24.5471 26.1741 0.115052C26.2462 -0.0684017 26.5165 -0.0211767 26.5219 0.176808C26.612 3.65516 27.1436 16.5296 30.0718 20.967C30.1421 21.0724 30.2935 21.0778 30.3673 20.9743C31.4665 19.4195 38.8979 9.87079 54.5714 11.6908C54.7678 11.7144 54.7895 11.9923 54.6003 12.045C49.9728 13.331 29.5348 20.5456 29.6123 47.704C29.6123 47.8857 29.3744 47.9565 29.2807 47.7985Z" fill="white"/>
<path d="M36.0256 10.1449C38.3374 10.1449 40.2116 8.25582 40.2116 5.92549C40.2116 3.59516 38.3374 1.70605 36.0256 1.70605C33.7137 1.70605 31.8396 3.59516 31.8396 5.92549C31.8396 8.25582 33.7137 10.1449 36.0256 10.1449Z" fill="white"/>
<path d="M24.8587 45.7136C21.5809 43.7828 5.89652 33.8182 0.0112845 16.8097C-0.0553884 16.6189 0.189678 16.4755 0.31942 16.6298C2.65658 19.3689 11.1276 29.0611 15.2397 30.5451C15.3695 30.5923 15.4776 30.5178 15.4812 30.3798C15.5317 28.607 15.9966 17.5435 19.7987 11.702C19.9069 11.5367 20.1627 11.6348 20.1303 11.831C19.496 15.6526 17.3408 32.2616 25.1055 45.4666C25.201 45.6264 25.019 45.8081 24.8587 45.7136Z" fill="#FFC222"/>
<path d="M9.8321 20.057C12.144 20.057 14.0181 18.1679 14.0181 15.8376C14.0181 13.5073 12.144 11.6182 9.8321 11.6182C7.52025 11.6182 5.64612 13.5073 5.64612 15.8376C5.64612 18.1679 7.52025 20.057 9.8321 20.057Z" fill="#FFC222"/>
<path d="M12.3262 83.6484C12.3262 83.7135 12.3034 83.7721 12.2578 83.8242C12.2188 83.8763 12.1504 83.9186 12.0527 83.9512C11.9551 83.9837 11.8249 84.0098 11.6621 84.0293C11.4993 84.0488 11.291 84.0586 11.0371 84.0586C10.7897 84.0586 10.5814 84.0488 10.4121 84.0293C10.2493 84.0098 10.1191 83.9837 10.0215 83.9512C9.92383 83.9186 9.85221 83.8763 9.80664 83.8242C9.76758 83.7721 9.74805 83.7135 9.74805 83.6484V71.7148C9.74805 71.6497 9.76758 71.5911 9.80664 71.5391C9.85221 71.487 9.92383 71.4447 10.0215 71.4121C10.1257 71.3796 10.2591 71.3535 10.4219 71.334C10.5846 71.3145 10.7897 71.3047 11.0371 71.3047C11.291 71.3047 11.4993 71.3145 11.6621 71.334C11.8249 71.3535 11.9551 71.3796 12.0527 71.4121C12.1504 71.4447 12.2188 71.487 12.2578 71.5391C12.3034 71.5911 12.3262 71.6497 12.3262 71.7148V83.6484ZM22.0234 82.9258C22.0234 83.1211 22.0137 83.2871 21.9941 83.4238C21.9811 83.554 21.9583 83.6647 21.9258 83.7559C21.8932 83.8405 21.8509 83.9023 21.7988 83.9414C21.7533 83.9805 21.6979 84 21.6328 84H15.8418C15.627 84 15.4447 83.9382 15.2949 83.8145C15.1517 83.6842 15.0801 83.4759 15.0801 83.1895V71.7148C15.0801 71.6497 15.0996 71.5911 15.1387 71.5391C15.1842 71.487 15.2559 71.4447 15.3535 71.4121C15.4512 71.3796 15.5814 71.3535 15.7441 71.334C15.9134 71.3145 16.1217 71.3047 16.3691 71.3047C16.623 71.3047 16.8314 71.3145 16.9941 71.334C17.1569 71.3535 17.2871 71.3796 17.3848 71.4121C17.4824 71.4447 17.5508 71.487 17.5898 71.5391C17.6354 71.5911 17.6582 71.6497 17.6582 71.7148V81.8809H21.6328C21.6979 81.8809 21.7533 81.9004 21.7988 81.9395C21.8509 81.972 21.8932 82.0306 21.9258 82.1152C21.9583 82.1934 21.9811 82.3008 21.9941 82.4375C22.0137 82.5677 22.0234 82.7305 22.0234 82.9258ZM35.7246 83.3457C35.6855 83.502 35.6302 83.6289 35.5586 83.7266C35.4935 83.8177 35.3926 83.8893 35.2559 83.9414C35.1191 83.987 34.9434 84.0163 34.7285 84.0293C34.5137 84.0488 34.2402 84.0586 33.9082 84.0586C33.5371 84.0586 33.2376 84.0488 33.0098 84.0293C32.7884 84.0163 32.6126 83.987 32.4824 83.9414C32.3522 83.8893 32.2578 83.8177 32.1992 83.7266C32.1406 83.6289 32.0951 83.502 32.0625 83.3457L30.041 75.3379H30.0215L28.1074 83.3457C28.0749 83.4954 28.0293 83.6191 27.9707 83.7168C27.9121 83.8079 27.8177 83.8796 27.6875 83.9316C27.5638 83.9837 27.3913 84.0163 27.1699 84.0293C26.9551 84.0488 26.6686 84.0586 26.3105 84.0586C25.9329 84.0586 25.6302 84.0488 25.4023 84.0293C25.181 84.0163 25.0052 83.987 24.875 83.9414C24.7448 83.8893 24.6504 83.8177 24.5918 83.7266C24.5332 83.6289 24.4844 83.502 24.4453 83.3457L21.5742 72.3203C21.5156 72.0859 21.4831 71.9036 21.4766 71.7734C21.4701 71.6367 21.5059 71.5326 21.584 71.4609C21.6686 71.3893 21.8021 71.347 21.9844 71.334C22.1732 71.3145 22.4336 71.3047 22.7656 71.3047C23.0716 71.3047 23.3125 71.3112 23.4883 71.3242C23.6706 71.3307 23.8073 71.3535 23.8984 71.3926C23.9896 71.4251 24.0514 71.4772 24.084 71.5488C24.1165 71.6139 24.1426 71.7083 24.1621 71.832L26.3789 81.5098H26.3887L28.6934 71.9004C28.7194 71.7767 28.752 71.6758 28.791 71.5977C28.8366 71.5195 28.9082 71.4609 29.0059 71.4219C29.11 71.3763 29.25 71.347 29.4258 71.334C29.6016 71.3145 29.8359 71.3047 30.1289 71.3047C30.4414 71.3047 30.6888 71.3112 30.8711 71.3242C31.0599 71.3372 31.2031 71.3665 31.3008 71.4121C31.4049 71.4512 31.4798 71.5098 31.5254 71.5879C31.571 71.666 31.6068 71.7702 31.6328 71.9004L34.0156 81.5098H34.0352L36.252 71.8613C36.2715 71.7572 36.2975 71.6693 36.3301 71.5977C36.3626 71.5195 36.4245 71.4609 36.5156 71.4219C36.6068 71.3763 36.737 71.347 36.9062 71.334C37.0755 71.3145 37.3132 71.3047 37.6191 71.3047C37.9056 71.3047 38.127 71.3145 38.2832 71.334C38.446 71.347 38.5632 71.3893 38.6348 71.4609C38.7064 71.5326 38.7357 71.64 38.7227 71.7832C38.7161 71.9199 38.6836 72.1087 38.625 72.3496L35.7246 83.3457ZM47.4922 82.9258C47.4922 83.1211 47.4824 83.2871 47.4629 83.4238C47.4499 83.554 47.4271 83.6647 47.3945 83.7559C47.362 83.8405 47.3197 83.9023 47.2676 83.9414C47.222 83.9805 47.1667 84 47.1016 84H41.3105C41.0957 84 40.9134 83.9382 40.7637 83.8145C40.6204 83.6842 40.5488 83.4759 40.5488 83.1895V71.7148C40.5488 71.6497 40.5684 71.5911 40.6074 71.5391C40.653 71.487 40.7246 71.4447 40.8223 71.4121C40.9199 71.3796 41.0501 71.3535 41.2129 71.334C41.3822 71.3145 41.5905 71.3047 41.8379 71.3047C42.0918 71.3047 42.3001 71.3145 42.4629 71.334C42.6257 71.3535 42.7559 71.3796 42.8535 71.4121C42.9512 71.4447 43.0195 71.487 43.0586 71.5391C43.1042 71.5911 43.127 71.6497 43.127 71.7148V81.8809H47.1016C47.1667 81.8809 47.222 81.9004 47.2676 81.9395C47.3197 81.972 47.362 82.0306 47.3945 82.1152C47.4271 82.1934 47.4499 82.3008 47.4629 82.4375C47.4824 82.5677 47.4922 82.7305 47.4922 82.9258Z" fill="white"/>
</svg>
